<svg width="33" height="34" viewBox="0 0 33 34" fill="none" xmlns="http://www.w3.org/2000/svg">
<path d="M22.5993 16.6C21.6437 15.7967 20.2066 15.9071 19.3977 16.8588L18.7296 17.6431C18.7048 17.6678 18.6706 17.6773 18.6363 17.6678C17.755 17.3709 16.1123 16.5372 15.0312 14.2854C15.0217 14.2607 15.0255 14.2321 15.0464 14.2074L15.8801 13.2423C16.6833 12.3115 16.5958 10.884 15.6803 10.0655L13.8187 8.38476C13.3657 7.97552 12.7718 7.76616 12.1665 7.80422C11.5574 7.83848 10.9978 8.11067 10.5886 8.56939L9.46743 9.8371C8.96494 10.4024 8.66419 11.1334 8.60898 11.889C8.49668 13.5069 8.71177 17.6335 13.0821 21.0635C13.4532 21.3947 16.6054 24.109 20.1418 24.109C20.8347 24.109 21.5446 24.0062 22.247 23.7588C22.8123 23.5589 23.3243 23.2125 23.7183 22.7557L24.8147 21.4841C25.2144 21.0216 25.4086 20.4258 25.361 19.8167C25.3115 19.2076 25.0298 18.6518 24.5616 18.2578L22.5993 16.6ZM23.3397 20.2165L22.2433 21.488C22.072 21.6879 21.8493 21.8383 21.6056 21.9258C18.267 23.0945 14.4031 19.636 14.3651 19.6055L14.3099 19.5542C10.7829 16.796 10.4403 13.6571 10.5526 12.0262C10.5773 11.695 10.7087 11.379 10.9275 11.1354L12.0487 9.86765C12.1267 9.78009 12.2238 9.76106 12.2771 9.75535H12.2961C12.3494 9.75535 12.437 9.77058 12.515 9.8391L14.3766 11.5198C14.5079 11.6359 14.5174 11.8415 14.4051 11.9786L13.5714 12.9436C13.0461 13.5584 12.9243 14.4207 13.2745 15.1421C14.664 18.0372 16.8415 19.1279 18.016 19.5276C18.8059 19.796 19.672 19.5562 20.2145 18.9242L20.8826 18.14C20.9987 18.0029 21.2042 17.9896 21.3413 18.1019L23.3056 19.7636C23.3989 19.8417 23.4179 19.9388 23.4217 19.9882C23.4217 20.0263 23.4177 20.1233 23.3397 20.2165Z" fill="white"/>
<path d="M16.8868 0.120165C12.6517 0.120165 8.67179 1.77234 5.67355 4.76453C0.420184 10.0179 -0.467154 18.2237 3.48649 24.4555L0.5 33.6851L9.30905 29.9087C15.459 33.2606 23.1186 32.1738 28.1035 27.1906C34.2875 21.0065 34.2875 10.9505 28.1035 4.76595C25.1075 1.76805 21.1256 0.119629 16.8863 0.119629L16.8868 0.120165ZM26.7255 25.811C22.2524 30.2841 15.3124 31.1809 9.86465 27.9848L9.43637 27.7297L3.67672 30.2004L5.63154 24.159L5.36316 23.765C1.63625 18.2641 2.34621 10.8521 7.05344 6.14498C9.68017 3.51825 13.1732 2.07161 16.8868 2.07161C20.6004 2.07161 24.0931 3.51825 26.7201 6.14498C32.145 11.5621 32.1447 20.3881 26.7255 25.811Z" fill="white"/>
</svg>
